# AST/ASF file generated using VICON BodyLanguage
# -----------------------------------------------
:version 1.10
:name VICON
:units
  mass 1.0
  length 0.45
  angle deg
:documentation
   .ast/.asf automatically generated from VICON data using
   VICON BodyBuilder and BodyLanguage model FoxedUp or BRILLIANT.MOD
:root
   order TX TY TZ RX RY RZ
   axis XYZ
   position 0 0 0  
   orientation 0 0 0 
:bonedata
  begin
     id 1 
     name lhipjoint
     direction 0.690799 -0.707083 0.151096 
     length 2.54797 
     axis 0 0 0  XYZ
  end
  begin
     id 2 
     name lfemur
     direction 0.34202 -0.939693 0  
     length 7.21646  
     axis 0 0 20  XYZ
    dof rx ry rz
    limits (-160.0 20.0)
           (-70.0 70.0)
           (-60.0 70.0)
  end
  begin
     id 3 
     name ltibia
     direction 0.34202 -0.939693 0   
     length 8.16759   
     axis 0 0 20   XYZ
    dof rx
    limits (-10.0 170.0)
  end
  begin
     id 4 
     name lfoot
     direction 0.0487203 -0.133858 0.989802   
     length 1.93375   
     axis -90 7.62852e-016 20   XYZ
    dof rx rz
    limits (-45.0 90.0)
           (-70.0 20.0)
  end
  begin
     id 5 
     name ltoes
     direction 1.53453e-011 -4.21783e-011 1   
     length 0.979747   
     axis -90 7.62852e-016 20   XYZ
    dof rx
    limits (-90.0 20.0)
  end
  begin
     id 6 
     name rhipjoint
     direction -0.694693 -0.703425 0.150315   
     length 2.56122  
     axis 0 0 0  XYZ 
  end
  begin
     id 7 
     name rfemur
     direction -0.34202 -0.939693 0   
     length 7.36786   
     axis 0 0 -20   XYZ
    dof rx ry rz
    limits (-160.0 20.0)
           (-70.0 70.0)
           (-70.0 60.0)
  end
  begin
     id 8 
     name rtibia
     direction -0.34202 -0.939693 0   
     length 8.07288   
     axis 0 0 -20   XYZ
    dof rx
    limits (-10.0 170.0)
 end
 begin
     id 9 
     name rfoot
     direction -0.0428397 -0.117701 0.992125   
     length 1.88295  
     axis -90 -7.62852e-016 -20   XYZ
    dof rx rz
    limits (-45.0 90.0)
           (-20.0 70.0)
  end
  begin
     id 10 
     name rtoes
     direction -1.53456e-011 -4.2187e-011 1   
     length 0.955578   
     axis -90 -7.62852e-016 -20   XYZ
    dof rx
    limits (-90.0 20.0)
  end
  begin
     id 11 
     name lowerback
     direction 0.0288145 0.999398 -0.0193241   
     length 1.92149   
     axis 0 0 0   XYZ
    dof rx ry rz
    limits (-20.0 45.0)
           (-30.0 30.0)
           (-30.0 30.0)
  end
  begin
     id 12 
     name upperback
     direction 0.0233784 0.998099 0.0570278   
     length 1.90435   
     axis 0 0 0   XYZ
    dof rx ry rz
    limits (-20.0 45.0)
           (-30.0 30.0)
           (-30.0 30.0)
  end
  begin
     id 13 
     name thorax
     direction 0.0096694 0.997833 0.0650817   
     length 1.9111   
     axis 0 0 0   XYZ
    dof rx ry rz
    limits (-20.0 45.0)
           (-30.0 30.0)
           (-30.0 30.0)
  end
  begin
     id 14 
     name lowerneck
     direction 0.00516803 0.999916 0.0118722   
     length 1.74664   
     axis 0 0 0   XYZ
    dof rx ry rz
    limits (-20.0 45.0)
           (-30.0 30.0)
           (-30.0 30.0)
  end
  begin
     id 15 
     name upperneck
     direction -0.0510851 0.996117 -0.071696   
     length 1.68498   
     axis 0 0 0   XYZ
    dof rx ry rz
    limits (-20.0 45.0)
           (-30.0 30.0)
           (-30.0 30.0)
  end
  begin
     id 16
     name head
     direction -0.019188 0.999436 -0.0275702  
     length 1.83483  
     axis 0 0 0   XYZ
    dof rx ry rz
    limits (-20.0 45.0)
           (-30.0 30.0)
           (-30.0 30.0)
  end
  begin
     id 17 
     name lclavicle
     direction 0.967006 0.248456 -0.0562957  
     length 3.39395  
     axis 0 0 0   XYZ
    dof ry rz
    limits (-20.0 10.0)
           (0.0 20.0)
  end
  begin
     id 18 
     name lhumerus
     direction 1 -4.48962e-011 -5.62711e-019   
     length 5.24318   
     axis 180 -30 -90   XYZ
    dof rx ry rz
    limits (-60.0 90.0)
           (-90.0 90.0)
           (-90.0 90.0)
  end
  begin
     id 19
     name lradius
     direction 1 -4.48966e-011 7.90625e-027   
     length 2.98999   
     axis 180 -30 -90   XYZ
    dof rx
    limits (-10.0 170.0)
  end
  begin
     id 20
     name lwrist
     direction 1 -4.48959e-011 1.61068e-026   
     length 1.49499   
     axis -9.31229e-015 90 90   XYZ
    dof ry
    limits (-180.0 0.0)
 end
  begin
     id 21 
     name lhand
     direction 1 -4.49017e-011 3.22136e-026   
     length 0.726745   
     axis -2.0555e-014 90 90   XYZ
    dof rx rz
    limits (-90.0 90.0)
           (-45.0 45.0)
  end
  begin
     id 22 
     name lfingers
     direction 1 -4.4898e-011 6.44272e-026   
     length 0.58592   
     axis -4.11101e-014 90 90   XYZ
    dof rx
    limits (0.0 90.0)
  end
  begin
     id 23
     name lthumb
     direction 0.707107 -6.34922e-011 0.707107   
     length 0.841268   
     axis -90 45 2.85299e-015   XYZ
    dof rx rz
    limits (-45.0 45.0)
           (-45.0 45.0)
  end
  begin
     id 24 
     name rclavicle
     direction -0.972232 0.230238 0.0419005   
     length 3.40416  
     axis 0 0 0   XYZ 
    dof ry rz
    limits (-10.0 20.0)
           (-20.0 0.0)
  end
  begin
     id 25 
     name rhumerus
     direction -1 -4.48976e-011 2.48487e-027  
     length 5.37045   
     axis 180 30 90   XYZ
    dof rx ry rz
    limits (-90.0 60.0)
           (-90.0 90.0)
           (-90.0 90.0)
  end
  begin
     id 26 
     name rradius
     direction -1 -4.48942e-011 7.87951e-027   
     length 2.92792   
     axis 180 30 90   XYZ
    dof rx
    limits (-10.0 170.0)
  end
  begin
     id 27 
     name rwrist
     direction -1 -4.48969e-011 1.61068e-026   
     length 1.46396   
     axis -9.31229e-015 -90 -90   XYZ
    dof ry
    limits (-180.0 0.0)
  end
  begin
     id 28
     name rhand
     direction -1 -4.49043e-011 3.22136e-026   
     length 0.784497   
     axis -2.0555e-014 -90 -90   XYZ
    dof rx rz
    limits (-90.0 90.0)
           (-45.0 45.0)
  end
  begin
     id 29
     name rfingers
     direction -1 -4.48823e-011 6.44272e-026   
     length 0.632482   
     axis -4.11101e-014 -90 -90   XYZ
    dof rx
    limits (0.0 90.0)
  end
  begin
     id 30
     name rthumb
     direction -0.707107 -6.34923e-011 0.707107   
     length 0.908121   
     axis -90 -45 -2.85299e-015   XYZ
    dof rx rz
    limits (-45.0 45.0)
           (-45.0 45.0)
  end
:hierarchy
  begin
    root lhipjoint rhipjoint lowerback
    lhipjoint lfemur
    lfemur ltibia
    ltibia lfoot
    lfoot ltoes
    rhipjoint rfemur
    rfemur rtibia
    rtibia rfoot
    rfoot rtoes
    lowerback upperback
    upperback thorax
    thorax lowerneck lclavicle rclavicle
    lowerneck upperneck
    upperneck head
    lclavicle lhumerus
    lhumerus lradius
    lradius lwrist
    lwrist lhand lthumb
    lhand lfingers
    rclavicle rhumerus
    rhumerus rradius
    rradius rwrist
    rwrist rhand rthumb
    rhand rfingers
  end

#!OML:ASF E:\Style6\Style6.ASF
:FULLY-SPECIFIED
:DEGREES
1337
root -0.754152 16.3311 -1.43348 15.4983 32.5084 4.85684
lowerback 21.0881 2.58148 8.42514
upperback 6.95959 5.58887 6.23611
thorax -3.99482 2.80188 0.610698
lowerneck -18.5417 -6.93775 -1.96232
upperneck 17.2783 -7.49513 -6.75623
head 8.2305 -4.35605 -2.86554
rclavicle -5.40694e-014 9.54166e-015
rhumerus 86.4884 33.0461 -1.85531
rradius 116.841
rwrist -32.2862
rhand 9.93124 7.69573
rfingers 7.12502
rthumb 35.0611 -18.846
lclavicle -5.40694e-014 9.54166e-015
lhumerus -32.5805 -2.15495 31.6946
lradius 98.9906
lwrist 42.471
lhand -1.54656 22.8388
lfingers 7.12502
lthumb 24.1082 51.3441
rfemur -51.6813 -33.8215 25.9599
rtibia 62.5014
rfoot -21.3668 -5.67581
rtoes -10.9082
lfemur -53.3732 -4.91869 -19.9465
ltibia 52.66
lfoot -5.63456 -22.4888
ltoes 10.46
1338
root -0.743621 16.3501 -1.43205 15.2054 32.2975 4.69964
lowerback 20.943 2.56681 8.43535
upperback 6.95878 5.55394 6.24968
thorax -3.92274 2.78749 0.635754
lowerneck -18.5634 -6.96884 -2.03881
upperneck 17.4541 -7.52226 -6.68442
head 8.29921 -4.3678 -2.84105
rclavicle 3.49861e-014 -1.30403e-013
rhumerus 86.019 32.5588 -2.1103
rradius 117.351
rwrist -32.4454
rhand 10.0151 7.73368
rfingers 7.12502
rthumb 35.1406 -18.7894
lclavicle 3.49861e-014 -1.30403e-013
lhumerus -32.577 -2.11051 31.799
lradius 99.0773
lwrist 42.3587
lhand -1.54738 22.8847
lfingers 7.12502
lthumb 24.1075 51.3901
rfemur -51.173 -33.6509 25.8606
rtibia 62.1635
rfoot -21.2149 -5.762
rtoes -12.2496
lfemur -52.9579 -4.78375 -19.8672
ltibia 52.4708
lfoot -5.642 -22.4026
ltoes 10.4134
1339
root -0.735596 16.3716 -1.42995 14.8387 32.1379 4.4311
lowerback 20.8461 2.55797 8.47628
upperback 6.93642 5.54794 6.35316
thorax -3.90412 2.7847 0.730125
lowerneck -18.5905 -7.00668 -2.13595
upperneck 17.6938 -7.52928 -6.70785
head 8.38862 -4.38179 -2.84547
rclavicle 3.02153e-014 6.36111e-015
rhumerus 85.5931 32.0928 -2.22525
rradius 117.83
rwrist -32.7289
rhand 9.97463 7.87172
rfingers 7.12502
rthumb 35.1023 -18.6604
lclavicle 3.02153e-014 6.36111e-015
lhumerus -32.7114 -2.09967 32.0181
lradius 99.203
lwrist 42.1275
lhand -1.512 22.7414
lfingers 7.12502
lthumb 24.1414 51.2424
rfemur -50.6349 -33.4544 25.8391
rtibia 61.8343
rfoot -21.1445 -5.68682
rtoes -11.1853
lfemur -52.5412 -4.62871 -19.6787
ltibia 52.2952
lfoot -5.62202 -22.3812
ltoes 10.5883
1340
root -0.729349 16.3905 -1.42708 14.5931 31.8593 4.29745
lowerback 20.76 2.55586 8.44157
upperback 6.89266 5.52835 6.33376
thorax -3.90966 2.77339 0.735858
lowerneck -18.5511 -6.99788 -2.17918
upperneck 17.8786 -7.51305 -6.63785
head 8.4497 -4.3705 -2.81908
rclavicle -5.08889e-014 -1.90833e-014
rhumerus 85.1632 31.6777 -2.46859
rradius 118.212
rwrist -32.8768
rhand 9.91088 8.15262
rfingers 7.12502
rthumb 35.0418 -18.3937
lclavicle -5.08889e-014 -1.90833e-014
lhumerus -32.7652 -2.06709 32.0787
lradius 99.2639
lwrist 41.9162
lhand -1.72633 22.2484
lfingers 7.12502
lthumb 23.9359 50.7765
rfemur -50.243 -33.153 25.7223
rtibia 61.541
rfoot -20.9695 -5.73695
rtoes -10.0998
lfemur -52.1762 -4.42548 -19.6049
ltibia 52.1171
lfoot -5.57183 -22.3862
ltoes 11.0908
1341
root -0.721761 16.409 -1.42258 14.3681 31.5321 4.21647
lowerback 20.6915 2.58953 8.35096
upperback 6.83383 5.5454 6.29189
thorax -3.94252 2.77823 0.738315
lowerneck -18.4279 -6.98004 -2.1624
upperneck 17.9679 -7.50552 -6.58833
head 8.45969 -4.36003 -2.80214
rclavicle -1.43125e-014 -4.77083e-014
rhumerus 84.6679 31.2716 -2.72099
rradius 118.658
rwrist -33.128
rhand 9.88035 8.17973
rfingers 7.12502
rthumb 35.0128 -18.3733
lclavicle -1.43125e-014 -4.77083e-014
lhumerus -32.7595 -2.12103 32.0882
lradius 99.3385
lwrist 41.8511
lhand -1.92728 21.9114
lfingers 7.12502
lthumb 23.7431 50.4646
rfemur -49.8374 -32.7996 25.5317
rtibia 61.2815
rfoot -20.8583 -5.69115
rtoes -8.8688
lfemur -51.79 -4.15947 -19.6186
ltibia 51.9144
lfoot -5.69161 -22.3281
ltoes 10.5878
1342
root -0.71089 16.4287 -1.41903 14.1175 31.2847 4.12297
lowerback 20.6128 2.60838 8.32334
upperback 6.78185 5.55669 6.27813
thorax -3.95937 2.7815 0.738599
lowerneck -18.408 -6.97346 -2.08281
upperneck 18.1482 -7.4996 -6.64646
head 8.51155 -4.35916 -2.83929
rclavicle 3.49861e-014 -6.99722e-014
rhumerus 84.1744 30.8847 -2.86226
rradius 119.135
rwrist -33.52
rhand 9.8175 8.05563
rfingers 7.12502
rthumb 34.9532 -18.5113
lclavicle 3.49861e-014 -6.99722e-014
lhumerus -32.7012 -2.17778 32.1511
lradius 99.4168
lwrist 41.7874
lhand -1.74288 21.9192
lfingers 7.12502
lthumb 23.92 50.4494
rfemur -49.3764 -32.5963 25.3601
rtibia 61.0374
rfoot -20.8215 -5.53846
rtoes -8.08218
lfemur -51.3652 -3.95882 -19.6216
ltibia 51.7062
lfoot -5.81361 -22.2937
ltoes 10.3205
1343
root -0.699342 16.4458 -1.41864 14.0674 31.1088 4.39013
lowerback 20.5011 2.5844 8.13602
upperback 6.74642 5.46819 6.15059
thorax -3.94931 2.73767 0.729231
lowerneck -18.4604 -6.95749 -1.93252
upperneck 18.3609 -7.492 -6.72546
head 8.58302 -4.35585 -2.89883
rclavicle -1.11319e-014 -5.08889e-014
rhumerus 83.6477 30.3783 -3.04421
rradius 119.705
rwrist -34.0413
rhand 9.95706 7.60309
rfingers 7.12502
rthumb 35.0856 -18.9329
lclavicle -1.11319e-014 -5.08889e-014
lhumerus -32.6162 -2.24268 32.1523
lradius 99.5473
lwrist 41.7266
lhand -1.66766 22.0513
lfingers 7.12502
lthumb 23.9921 50.572
rfemur -48.9908 -32.5966 24.8886
rtibia 60.8421
rfoot -20.7621 -5.36909
rtoes -7.66978
lfemur -50.9367 -3.94425 -19.936
ltibia 51.4883
lfoot -5.97018 -22.1935
ltoes 10.0141
1344
root -0.690836 16.46 -1.41484 14.0221 30.8549 4.6047
lowerback 20.3532 2.58139 7.877
upperback 6.71294 5.39296 6.08254
thorax -3.93088 2.70013 0.821957
lowerneck -18.3753 -6.9383 -1.97926
upperneck 18.4598 -7.44798 -6.74068
head 8.60482 -4.33977 -2.89153
rclavicle -1.11319e-014 2.22639e-014
rhumerus 83.2149 29.8278 -3.12443
rradius 120.259
rwrist -34.5847
rhand 10.1454 7.16245
rfingers 7.12502
rthumb 35.2643 -19.3315
lclavicle -1.11319e-014 2.22639e-014
lhumerus -32.6593 -2.29773 32.1957
lradius 99.6879
lwrist 41.6492
lhand -1.17481 22.1769
lfingers 7.12502
lthumb 24.4646 50.6345
rfemur -48.6554 -32.4481 24.4806
rtibia 60.6462
rfoot -20.6844 -5.3034
rtoes -7.36449
lfemur -50.5709 -3.81561 -20.2054
ltibia 51.3007
lfoot -6.00097 -22.1395
ltoes 10.0873
1345
root -0.684613 16.47 -1.40762 13.7597 30.4972 4.45959
lowerback 20.2889 2.63803 7.74328
upperback 6.66955 5.43914 6.14364
thorax -3.96274 2.7195 0.952292
lowerneck -18.2149 -6.92517 -2.1136
upperneck 18.4989 -7.39599 -6.74354
head 8.5979 -4.32346 -2.85981
rclavicle 1.30403e-013 7.31528e-014
rhumerus 82.8723 29.4088 -2.96959
rradius 120.641
rwrist -34.9044
rhand 9.91553 7.37905
rfingers 7.12502
rthumb 35.0462 -19.1662
lclavicle 1.30403e-013 7.31528e-014
lhumerus -32.7163 -2.40441 32.2986
lradius 99.7559
lwrist 41.6445
lhand -0.906817 22.1342
lfingers 7.12502
lthumb 24.7215 50.5569
rfemur -48.2481 -32.0259 24.354
rtibia 60.4265
rfoot -20.6616 -5.13825
rtoes -5.65661
lfemur -50.2247 -3.42953 -20.183
ltibia 51.1618
lfoot -5.9752 -22.1686
ltoes 10.1001
1346
root -0.67836 16.4827 -1.40359 13.4367 30.2179 4.23784
lowerback 20.2954 2.6709 7.73684
upperback 6.59758 5.48811 6.1735
thorax -4.04647 2.73841 0.973835
lowerneck -18.0823 -6.92552 -2.07577
upperneck 18.6098 -7.4009 -6.77564
head 8.609 -4.32598 -2.87534
rclavicle -9.06458e-014 -5.725e-014
rhumerus 82.4517 29.0469 -2.78081
rradius 120.932
rwrist -35.1297
rhand 9.38683 7.93107
rfingers 7.12502
rthumb 34.5445 -18.7301
lclavicle -9.06458e-014 -5.725e-014
lhumerus -32.6295 -2.55969 32.2831
lradius 99.7015
lwrist 41.358
lhand -0.79906 22.0898
lfingers 7.12502
lthumb 24.8248 50.4983
rfemur -47.8339 -31.7392 24.3459
rtibia 60.1962
rfoot -20.5564 -5.31879
rtoes -6.69807
lfemur -49.8797 -3.04887 -20.0968
ltibia 51.076
lfoot -6.17222 -22.219
ltoes 9.21732
1347
root -0.670169 16.4964 -1.40208 13.1515 30.0168 4.00586
lowerback 20.1939 2.60469 7.84067
upperback 6.57034 5.41096 6.15941
thorax -4.0139 2.70143 0.923576
lowerneck -17.9927 -6.8761 -1.94581
upperneck 18.6719 -7.36351 -6.80975
head 8.60779 -4.30283 -2.90075
rclavicle -4.77083e-015 -4.45278e-014
rhumerus 82.1665 28.5226 -2.67622
rradius 121.365
rwrist -35.1679
rhand 8.81513 7.89403
rfingers 7.12502
rthumb 34.0017 -18.8894
lclavicle -4.77083e-015 -4.45278e-014
lhumerus -32.6166 -2.58554 32.1211
lradius 99.6804
lwrist 41.0482
lhand -0.358129 22.2323
lfingers 7.12502
lthumb 25.2473 50.5819
rfemur -47.4605 -31.5438 24.3865
rtibia 59.9461
rfoot -20.4833 -5.40396
rtoes -7.41918
lfemur -49.6026 -2.76421 -19.9654
ltibia 51.0494
lfoot -6.23688 -22.2549
ltoes 9.18496
